<svg xmlns="http://www.w3.org/2000/svg" viewBox="0 0 555.7 119.3"><defs><style>.cls-1,.cls-2{fill:#5086ff;}.cls-2{font-size:85.34px;font-family:Gilroy-ExtraBold;font-weight:800;letter-spacing:0.05em;}.cls-3{letter-spacing:0.03em;}.cls-4{letter-spacing:0.05em;}</style></defs><title>Asset 3</title><g id="Layer_2" data-name="Layer 2"><g id="Layer_2-2" data-name="Layer 2"><path class="cls-1" d="M106.29,21.48,71.82,42.71,63.2,48l-4.31,2.65-1.07.67c-.47.28-.46.31-.55.41a1,1,0,0,0-.22.55.84.84,0,0,0,.45.86.15.15,0,0,1,.1,0,.28.28,0,0,1,.13,0l1.17.48,2.34,1,9.36,3.85,4.68,1.92,2.34,1,.59.24.32.14.59.3a7.17,7.17,0,0,1,1.13.72,7.9,7.9,0,0,1,1,.89A9.6,9.6,0,0,1,83.43,73.9,9.72,9.72,0,0,1,80,78.32l-.55.39-.26.17-.53.36-1,.7L60.8,91.2,27.17,113.73a9,9,0,0,1-10-15c.28-.18.57-.35.86-.51L53.93,79.59l18-9.33L73,69.68l.56-.3.28-.14s0,0,0,0a1.33,1.33,0,0,0-.28.57.85.85,0,0,0,.42.83l.1,0,.08,0h0a2.21,2.21,0,0,0-.24-.14l-.56-.3-2.22-1.22-4.44-2.43-8.87-4.86-2.22-1.21L54.52,60c-.33-.18-.66-.39-1-.59s-.61-.48-.9-.74a7.82,7.82,0,0,1-2.26-3.95,8,8,0,0,1,.24-4.41,7.61,7.61,0,0,1,2.6-3.56,9.1,9.1,0,0,1,1.58-.93L56,45.23l4.57-2.16,9.16-4.31Z"/><path class="cls-1" d="M107.85,3A6.7,6.7,0,0,0,96.67,3a5.2,5.2,0,0,0-.26,5.25s0,0,0,.05l0,.06,1.24,2.27a5.21,5.21,0,0,0,4.52,2.77h.08a5.22,5.22,0,0,0,4.53-2.77l1.23-2.27,0-.06,0-.05A5.22,5.22,0,0,0,107.85,3Zm-5.59,7.45A4.28,4.28,0,0,1,98,6.7a3.08,3.08,0,0,1,0-.53,4.29,4.29,0,1,1,8.58,0,4.58,4.58,0,0,1,0,.53A4.3,4.3,0,0,1,102.26,10.46Z"/><path class="cls-1" d="M108.12,8.26l0,.05,0,.06-1.23,2.27-.92,1.69-3.41,6.28a.27.27,0,0,1-.47,0l-3.42-6.28-.91-1.69L96.46,8.37l0-.06s0,0,0-.05a1.09,1.09,0,0,1,1-1.56H98a4.29,4.29,0,0,0,8.51,0h.61A1.1,1.1,0,0,1,108.12,8.26Z"/><path class="cls-1" d="M28.87,57.78A16.09,16.09,0,0,0,2,57.78,12.58,12.58,0,0,0,1.4,70.4l.06.12.08.14,3,5.45a12.56,12.56,0,0,0,10.86,6.64h.19a12.58,12.58,0,0,0,10.86-6.64l3-5.45.07-.14.06-.12A12.53,12.53,0,0,0,28.87,57.78ZM15.45,75.67a10.29,10.29,0,0,1-10.21-9,9.22,9.22,0,0,1-.09-1.29,10.3,10.3,0,0,1,20.6,0,11,11,0,0,1-.08,1.29A10.3,10.3,0,0,1,15.45,75.67Z"/><path class="cls-1" d="M29.5,70.4l-.06.12-.07.14-3,5.45-2.2,4L16,95.22a.64.64,0,0,1-1.13,0L6.7,80.15l-2.2-4-3-5.45-.08-.14L1.4,70.4a2.61,2.61,0,0,1,2.36-3.74H5.24a10.3,10.3,0,0,0,20.43,0h1.48A2.61,2.61,0,0,1,29.5,70.4Z"/><text class="cls-2" transform="translate(129.01 96.26)">TRIPNA<tspan class="cls-3" x="313.62" y="0">R</tspan><tspan class="cls-4" x="368.66" y="0">Y</tspan></text></g></g></svg>